<svg xmlns="http://www.w3.org/2000/svg" width="141" height="141" viewBox="0 0 141 141" fill="none">
  <path d="M99.6298 0H40.7928C15.2358 0 0 15.2358 0 40.7928V99.5596C0 125.187 15.2358 140.423 40.7928 140.423H99.5596C125.116 140.423 140.352 125.187 140.352 99.6298V40.7928C140.423 15.2358 125.187 0 99.6298 0ZM98.7171 84.2535C97.6639 85.3067 96.3299 85.7982 94.9959 85.7982C93.6618 85.7982 92.3278 85.2365 91.2747 84.2535L70.2113 63.1902L49.1479 84.2535C47.1118 86.2897 43.7416 86.2897 41.7055 84.2535C39.6694 82.2174 39.6694 78.8473 41.7055 76.8111L66.4901 52.0266C68.5262 49.9904 71.8963 49.9904 73.9325 52.0266L98.7171 76.8111C100.753 78.8473 100.753 82.1472 98.7171 84.2535Z" fill="rgb(79, 190, 75)"/>
</svg>