<svg xmlns="http://www.w3.org/2000/svg" width="141" height="141" viewBox="0 0 141 141" fill="none">
<path d="M99.6298 0H40.7928C15.2358 0 0 15.2358 0 40.7928V99.5596C0 125.187 15.2358 140.423 40.7928 140.423H99.5596C125.116 140.423 140.352 125.187 140.352 99.6298V40.7928C140.423 15.2358 125.187 0 99.6298 0ZM82.7791 91.2747C84.8152 93.3108 84.8152 96.6809 82.7791 98.7171C81.7259 99.7702 80.3919 100.262 79.0579 100.262C77.7239 100.262 76.3899 99.7702 75.3367 98.7171L50.5521 73.9325C48.516 71.8964 48.516 68.5262 50.5521 66.4901L75.3367 41.7055C77.3728 39.6694 80.743 39.6694 82.7791 41.7055C84.8152 43.7416 84.8152 47.1118 82.7791 49.1479L61.7157 70.2113L82.7791 91.2747Z" fill="rgb(79, 190, 75)"/>
</svg>