<svg xmlns="http://www.w3.org/2000/svg" width="141" height="141" viewBox="0 0 141 141" fill="none">
  <path d="M99.6298 0H40.7928C15.2358 0 0 15.2358 0 40.7928V99.5596C0 125.187 15.2358 140.423 40.7928 140.423H99.5596C125.116 140.423 140.352 125.187 140.352 99.6298V40.7928C140.423 15.2358 125.187 0 99.6298 0ZM89.8002 73.9325L65.0156 98.7171C63.9625 99.7702 62.6285 100.262 61.2944 100.262C59.9604 100.262 58.6264 99.7702 57.5732 98.7171C55.5371 96.6809 55.5371 93.3108 57.5732 91.2747L78.6366 70.2113L57.5732 49.1479C55.5371 47.1118 55.5371 43.7416 57.5732 41.7055C59.6094 39.6694 62.9795 39.6694 65.0156 41.7055L89.8002 66.4901C91.9066 68.5262 91.9066 71.8964 89.8002 73.9325Z" fill="rgb(79, 190, 75)"/>
</svg>