<svg xmlns="http://www.w3.org/2000/svg" width="141" height="141" viewBox="0 0 141 141" fill="none">
<path d="M99.6298 0H40.7928C15.2358 0 0 15.2358 0 40.7928V99.5596C0 125.187 15.2358 140.423 40.7928 140.423H99.5596C125.116 140.423 140.352 125.187 140.352 99.6298V40.7928C140.423 15.2358 125.187 0 99.6298 0ZM98.7171 64.3837L73.9325 89.1683C72.8793 90.2215 71.5453 90.713 70.2113 90.713C68.8773 90.713 67.5433 90.2215 66.4901 89.1683L41.7055 64.3837C39.6694 62.3476 39.6694 58.9775 41.7055 56.9413C43.7416 54.9052 47.1118 54.9052 49.1479 56.9413L70.2113 78.0047L91.2747 56.9413C93.3108 54.9052 96.6809 54.9052 98.7171 56.9413C100.753 58.9775 100.753 62.2774 98.7171 64.3837Z" fill="rgb(79, 190, 75)"/>
</svg>